<?xml version="1.0" standalone="no"?><!DOCTYPE svg PUBLIC "-//W3C//DTD SVG 1.1//EN" "http://www.w3.org/Graphics/SVG/1.1/DTD/svg11.dtd"><svg t="1636937856753" class="icon" viewBox="0 0 1024 1024" version="1.1" xmlns="http://www.w3.org/2000/svg" p-id="3402" xmlns:xlink="http://www.w3.org/1999/xlink" width="200" height="200"><defs><style type="text/css"></style></defs><path d="M392.3 301.8c-13.8 0-25 11.2-25 25V759c0 13.8 11.2 25 25 25s25-11.2 25-25V326.8c0-13.8-11.2-25-25-25zM631.4 301.8c-13.8 0-25 11.2-25 25V759c0 13.8 11.2 25 25 25s25-11.2 25-25V326.8c0-13.8-11.2-25-25-25z" p-id="3403"></path><path d="M935.6 193.2h-202v-6.8c0-68.9-56.1-125-125-125H422.3c-68.9 0-125 56.1-125 125v6.8H89.5c-13.8 0-25 11.2-25 25s11.2 25 25 25h69.3V797c0 90.8 75.1 164.8 167.3 164.8h375c92.3 0 167.3-73.9 167.3-164.8V243.2h67.1c13.8 0 25-11.2 25-25s-11.1-25-24.9-25z m-588.3-6.8c0-41.4 33.6-75 75-75h186.3c41.4 0 75 33.6 75 75v6.8H347.3v-6.8zM818.5 797c0 63.3-52.6 114.8-117.3 114.8h-375c-64.7 0-117.3-51.5-117.3-114.8V243.2h609.8V797z" p-id="3404"></path></svg>