<?xml version="1.0" standalone="no"?><!DOCTYPE svg PUBLIC "-//W3C//DTD SVG 1.1//EN" "http://www.w3.org/Graphics/SVG/1.1/DTD/svg11.dtd"><svg t="1635855534359" class="icon" viewBox="0 0 1024 1024" version="1.1" xmlns="http://www.w3.org/2000/svg" p-id="2431" xmlns:xlink="http://www.w3.org/1999/xlink" width="200" height="200"><defs><style type="text/css"></style></defs><path d="M440.604 91.989c40.502-34.305 99.682-34.648 140.557-1.03l1.233 1.03L919.21 377.275c46.223 39.15 51.951 108.357 12.795 154.574a109.688 109.688 0 0 1-82.724 38.778l-0.966 0.004h-3.018v112.62c0 14.763-11.847 26.758-26.553 26.996l-0.446 0.004c-14.763 0-26.758-11.848-26.996-26.553l-0.004-0.447v-166.62h57.017a55.688 55.688 0 0 0 42.489-19.689c19.677-23.225 17.024-57.887-5.798-77.861l-0.698-0.601-336.815-285.286c-20.563-17.416-50.61-17.59-71.361-0.522l-0.626 0.522L138.69 418.48A55.668 55.668 0 0 0 119 460.958c0 30.44 24.433 55.174 54.762 55.666l0.921 0.007h58.007v331.696c0 30.44 24.433 55.174 54.762 55.666l0.92 0.007h447.243c30.446 0 55.184-24.43 55.675-54.752l0.008-0.92v-26.506c0-14.911 12.088-27 27-27 14.763 0 26.758 11.848 26.996 26.554l0.004 0.446v26.505c0 59.966-48.13 108.69-107.87 109.658l-1.813 0.015H288.373c-59.97 0-108.7-48.124-109.669-107.859l-0.014-1.814-0.001-277.696h-4.006c-59.97 0-108.7-48.124-109.668-107.859L65 460.958a109.668 109.668 0 0 1 38.054-83.055l0.735-0.628L440.604 91.989z" p-id="2432"></path><path d="M605 569c32.033 0 58 25.967 58 58v273c0 32.033-25.967 58-58 58H418c-32.033 0-58-25.967-58-58V627c0-32.033 25.967-58 58-58h187z m0 54H418a4 4 0 0 0-3.995 3.8l-0.005 0.2v273a4 4 0 0 0 3.8 3.995l0.2 0.005h187a4 4 0 0 0 3.995-3.8l0.005-0.2V627a4 4 0 0 0-3.8-3.995L605 623z" p-id="2433"></path></svg>