<?xml version="1.0" standalone="no"?><!DOCTYPE svg PUBLIC "-//W3C//DTD SVG 1.1//EN" "http://www.w3.org/Graphics/SVG/1.1/DTD/svg11.dtd"><svg t="1635902155619" class="icon" viewBox="0 0 1024 1024" version="1.1" xmlns="http://www.w3.org/2000/svg" p-id="10595" xmlns:xlink="http://www.w3.org/1999/xlink" width="200" height="200"><defs><style type="text/css"></style></defs><path d="M207.044923 391.739077C188.790154 383.232 177.230769 365.528615 177.230769 346.131692 177.230769 318.109538 201.038769 295.384615 230.4 295.384615s53.169231 22.724923 53.169231 50.747077c0 14.808615-6.754462 28.868923-18.510769 38.498462 21.385846 116.086154 79.694769 170.003692 178.018461 170.003692 98.008615 0 156.868923-53.602462 179.534769-168.822154a49.821538 49.821538 0 0 1-20.027077-39.68c0-28.022154 23.808-50.747077 53.169231-50.747077s53.169231 22.724923 53.169231 50.747077c0 19.298462-11.264 36.076308-27.864615 44.662154C654.020923 534.390154 573.636923 610.461538 443.076923 610.461538c-130.304 0-210.057846-75.776-236.032-218.722461z m654.178462 511.488v36.745846A84.027077 84.027077 0 0 1 777.176615 1024h-693.16923A84.027077 84.027077 0 0 1 0 939.972923V204.8a84.027077 84.027077 0 0 1 84.027077-84.027077H157.538462V84.027077A84.027077 84.027077 0 0 1 241.565538 0h698.407385A84.027077 84.027077 0 0 1 1024 84.027077V819.2a84.027077 84.027077 0 0 1-84.027077 84.027077h-78.769231zM864.059077 827.076923h79.616c11.716923 0 21.228308-9.294769 21.228308-20.755692V79.832615C964.923077 68.371692 955.411692 59.076923 943.694769 59.076923H237.843692C226.126769 59.076923 216.615385 68.371692 216.615385 79.832615V116.184615h562.550153c46.907077 0 84.913231 37.159385 84.913231 83.02277V827.076923zM79.891692 196.923077C68.391385 196.923077 59.076923 206.217846 59.076923 217.678769v726.488616C59.076923 955.628308 68.391385 964.923077 79.891692 964.923077h686.985846c11.500308 0 20.814769-9.294769 20.81477-20.755692V217.678769c0-11.460923-9.314462-20.755692-20.81477-20.755692H79.891692z" p-id="10596" data-spm-anchor-id="a313x.7781069.0.i23" class="selected" fill="#2c2c2c"></path></svg>