<?xml version="1.0" standalone="no"?><!DOCTYPE svg PUBLIC "-//W3C//DTD SVG 1.1//EN" "http://www.w3.org/Graphics/SVG/1.1/DTD/svg11.dtd"><svg t="1635903654715" class="icon" viewBox="0 0 1024 1024" version="1.1" xmlns="http://www.w3.org/2000/svg" p-id="12756" data-spm-anchor-id="a313x.7781069.0.i1" xmlns:xlink="http://www.w3.org/1999/xlink" width="200" height="200"><defs><style type="text/css"></style></defs><path d="M949.496686 292.161829l25.351314 604.028342v3.657143c-7.241143 69.12-65.170286 123.713829-133.968457 123.713829H167.365486c-68.798171 0-126.741943-54.593829-130.340572-127.370972v-3.642514l21.7088-600.356571c0-21.855086 18.110171-36.410514 36.205715-36.410515h115.887542C218.053486 113.883429 341.167543 1.053257 489.618286 1.053257h21.723428c148.450743 0 271.5648 112.830171 278.820572 254.727314h123.114057c18.110171 0 36.205714 18.197943 36.205714 36.381258zM286.866286 441.358629v-72.777143c0-21.825829-14.482286-36.381257-36.205715-36.381257-21.738057 0-36.234971 14.555429-36.234971 36.381257v72.777143c0 21.825829 14.482286 36.381257 36.234971 36.381257 21.723429 0 36.205714-14.555429 36.205715-36.381257z m0-181.935543h434.497828C714.166857 157.549714 623.616 77.487543 514.998857 77.487543H493.275429c-108.631771 0-199.153371 80.047543-206.394515 181.935543z m506.923885 181.935543v-72.777143c0-21.825829-14.482286-36.381257-36.220342-36.381257-21.7088 0-36.205714 14.555429-36.205715 36.381257v72.777143c0 21.825829 14.482286 36.381257 36.205715 36.381257s36.220343-14.555429 36.220342-36.381257zM673.821257 628.150857a15.637943 15.637943 0 0 0-12.5952-10.693486l-96.943543-14.160457-43.359085-88.298057a15.608686 15.608686 0 0 0-28.042972 0l-43.359086 88.298057-96.958171 14.175086a15.637943 15.637943 0 0 0-12.609829 10.678857c-1.828571 5.690514-0.292571 11.922286 3.964343 16.091429l70.158629 68.725028-16.574172 97.031315c-0.994743 5.895314 1.418971 11.849143 6.231772 15.36 4.827429 3.510857 11.205486 3.949714 16.471771 1.170285l86.718172-45.802057 86.703543 45.816686a15.608686 15.608686 0 0 0 22.659657-16.544914l-16.559543-97.031315 70.173257-68.725028c4.242286-4.183771 5.763657-10.415543 3.920457-16.091429z" p-id="12757" data-spm-anchor-id="a313x.7781069.0.i0" class="" fill="#2c3167"></path></svg>