<?xml version="1.0" standalone="no"?><!DOCTYPE svg PUBLIC "-//W3C//DTD SVG 1.1//EN" "http://www.w3.org/Graphics/SVG/1.1/DTD/svg11.dtd"><svg t="1635947044350" class="icon" viewBox="0 0 1024 1024" version="1.1" xmlns="http://www.w3.org/2000/svg" p-id="54814" xmlns:xlink="http://www.w3.org/1999/xlink" width="200" height="200"><defs><style type="text/css"></style></defs><path d="M866.8672 257.024H157.184c-30.208 0-54.6304-22.8864-54.6304-51.2 0-28.2624 24.4736-51.2 54.6304-51.2H866.816c30.208 0 54.6304 22.9376 54.6304 51.2 0 28.3136-24.4736 51.2-54.6304 51.2z m0 307.2H157.184c-30.208 0-54.6304-22.8864-54.6304-51.2 0-28.2624 24.4736-51.2 54.6304-51.2H866.816c30.208 0 54.6304 22.9376 54.6304 51.2 0 28.3136-24.4736 51.2-54.6304 51.2z m0 307.2H157.184c-30.208 0-54.6304-22.8864-54.6304-51.2 0-28.2624 24.4736-51.2 54.6304-51.2H866.816c30.208 0 54.6304 22.9376 54.6304 51.2 0 28.3136-24.4736 51.2-54.6304 51.2z" fill="#000000" p-id="54815" data-spm-anchor-id="a313x.7781069.0.i38" class=""></path></svg>