<?xml version="1.0" standalone="no"?><!DOCTYPE svg PUBLIC "-//W3C//DTD SVG 1.1//EN" "http://www.w3.org/Graphics/SVG/1.1/DTD/svg11.dtd"><svg t="1636446322606" class="icon" viewBox="0 0 1024 1024" version="1.1" xmlns="http://www.w3.org/2000/svg" p-id="2462" xmlns:xlink="http://www.w3.org/1999/xlink" width="200" height="200"><defs><style type="text/css"></style></defs><path d="M111.29344 959.46752c-19.48672 0-32.41984-1.56672-42.64448-11.74528-12.5952-12.53888-12.416-29.42464-12.07808-60.07808 0.05632-5.14048 0.11776-10.81344 0.13312-17.0752V314.6752h43.54048v555.9552c-0.01536 6.4512-0.08192 12.2368-0.13824 17.4848-0.11776 10.63936-0.23552 21.57056 0.34304 27.53536 5.25312 0.41984 14.28992 0.27648 23.0912 0.14336 6.32832-0.1024 13.51168-0.20992 21.66272-0.20992h687.83616v43.54048H145.2032c-7.89504 0-14.85824 0.10752-20.98688 0.2048-4.608 0.0768-8.90368 0.13824-12.92288 0.13824z" fill="#f26522" p-id="2463"></path><path d="M806.81472 991.42656H88.02304c-34.59072 0-62.73024-28.13952-62.73024-62.73024V343.35744c0-34.59072 28.13952-62.73024 62.73024-62.73024h718.79168c34.59072 0 62.73024 28.13952 62.73024 62.73024v585.33888c0 34.59072-28.13952 62.73024-62.73024 62.73024zM88.02304 324.16768a19.21024 19.21024 0 0 0-19.18976 19.18976v585.33888a19.21024 19.21024 0 0 0 19.18976 19.18976h718.79168a19.21536 19.21536 0 0 0 19.18976-19.18976V343.35744a19.21024 19.21024 0 0 0-19.18976-19.18976H88.02304z" p-id="2464" fill="#f26522"></path><path d="M169.39008 324.82816l-21.81632-37.67808 425.5744-246.34368a62.29504 62.29504 0 0 1 47.66208-6.30272 62.32064 62.32064 0 0 1 38.12352 29.28128l132.98176 230.82496-37.72928 21.7344-132.98176-230.82496a19.07712 19.07712 0 0 0-11.65824-8.96 19.072 19.072 0 0 0-14.58688 1.93024L169.39008 324.82816zM940.544 791.24992h-318.43328c-34.59072 0-62.73024-28.13952-62.73024-62.73024v-184.9856c0-34.59072 28.13952-62.73024 62.73024-62.73024H940.544c34.59072 0 62.73024 28.13952 62.73024 62.73024v184.9856c0 34.59072-28.13952 62.73024-62.73024 62.73024z m-318.43328-266.9056a19.21536 19.21536 0 0 0-19.18976 19.18976v184.9856a19.21536 19.21536 0 0 0 19.18976 19.18976H940.544a19.21536 19.21536 0 0 0 19.18976-19.18976v-184.9856a19.21536 19.21536 0 0 0-19.18976-19.18976h-318.43328z" p-id="2465" fill="#f26522"></path><path d="M712.92928 636.01664m-51.2 0a51.2 51.2 0 1 0 102.4 0 51.2 51.2 0 1 0-102.4 0Z" fill="#f26522" p-id="2466"></path></svg>