<?xml version="1.0" standalone="no"?><!DOCTYPE svg PUBLIC "-//W3C//DTD SVG 1.1//EN" "http://www.w3.org/Graphics/SVG/1.1/DTD/svg11.dtd"><svg t="1636455357818" class="icon" viewBox="0 0 1245 1024" version="1.1" xmlns="http://www.w3.org/2000/svg" p-id="18430" xmlns:xlink="http://www.w3.org/1999/xlink" width="243.1640625" height="200"><defs><style type="text/css"></style></defs><path d="M943.000457 1024a121.834769 121.834769 0 0 1 0-243.669537h7.512599a121.834769 121.834769 0 0 1-4.572886 243.342902z m-3.592983-193.041148a71.533014 71.533014 0 0 0-46.055502 122.488038 76.759171 76.759171 0 0 0 50.628389 20.251356 71.533014 71.533014 0 0 0 0-142.739394h-3.592982z m-587.942583 189.121531a120.854864 120.854864 0 0 1 0-241.709729 120.854864 120.854864 0 0 1 2.613078 241.709729z m0-192.387879a70.879745 70.879745 0 0 0-70.226476 71.20638 71.533014 71.533014 0 0 0 71.20638 71.533014 71.533014 71.533014 0 0 0 0-142.739394z m812.340669 82.311962h-77.41244l-3.592982-28.09059a140.779585 140.779585 0 0 0-279.272727 0l-3.592983 28.743859h-305.076874L489.958033 881.913876a140.779585 140.779585 0 0 0-277.639554 0l-3.592982 28.743859H81.664572A82.311962 82.311962 0 0 1 0.005879 827.365869V82.311962A82.311962 82.311962 0 0 1 81.337937 0h690.179266a82.311962 82.311962 0 0 1 81.658692 82.638596v116.281978h139.146412a114.975439 114.975439 0 0 1 94.070813 55.527911l8.165869 10.778947 108.769378 195.980861a245.955981 245.955981 0 0 1 42.135886 114.32217v251.835406a81.658692 81.658692 0 0 1-81.332058 81.985327zM771.190568 65.326954H81.664572a16.985008 16.985008 0 0 0-16.331739 16.985008v745.380542a16.985008 16.985008 0 0 0 16.658373 16.985008h70.879745a206.106539 206.106539 0 0 1 397.514514 0h193.694418a206.106539 206.106539 0 0 1 397.514513 0h22.211164a15.678469 15.678469 0 0 0 11.105583-4.572887 17.311643 17.311643 0 0 0 4.899521-12.085486v-246.935885a181.282297 181.282297 0 0 0-32.663477-83.291866l-1.959808-2.939713L1035.438096 293.971292c-20.57799-25.477512-27.110686-32.663477-43.115789-32.663477h-204.473365V82.311962a16.985008 16.985008 0 0 0-16.658374-16.985008z m398.494418 546.459968H837.170792v-313.569378h152.538437a63.04051 63.04051 0 0 1 42.789154 22.211164l4.899522 6.85933 101.910048 192.061244a126.73429 126.73429 0 0 1 23.844338 54.548007z m-267.513875-65.326954h177.689314l-97.990431-183.242105h-79.372249z" p-id="18431" fill="#f26522"></path></svg>