<?xml version="1.0" standalone="no"?><!DOCTYPE svg PUBLIC "-//W3C//DTD SVG 1.1//EN" "http://www.w3.org/Graphics/SVG/1.1/DTD/svg11.dtd"><svg t="1636454398879" class="icon" viewBox="0 0 1025 1024" version="1.1" xmlns="http://www.w3.org/2000/svg" p-id="13706" xmlns:xlink="http://www.w3.org/1999/xlink" width="200.1953125" height="200"><defs><style type="text/css"></style></defs><path d="M761.475072 244.98688c-80.134144 0-182.678528-52.514816-288.836608-52.514816-106.133504 0-315.092992 78.772224-315.092992 78.772224l0 446.383104c0 0 208.24064-52.51584 315.092992-52.51584 102.902784 0 210.755584 52.51584 315.092992 52.51584s236.317696-52.51584 236.317696-52.51584 0-405.561344 0-446.38208C889.480192 218.729472 837.065728 244.98688 761.475072 244.98688zM971.534336 638.854144c0 0-77.207552 26.257408-183.801856 26.257408-103.44448 0-211.678208-52.514816-315.092992-52.514816-109.543424 0-174.879744 34.357248-262.577152 52.514816L210.062336 297.501696c0 0 147.034112-52.514816 262.577152-52.514816 100.84864 0 181.469184 52.514816 288.836608 52.514816 102.82496 0 134.413312-26.257408 210.059264-26.257408L971.53536 638.854144zM840.24832 796.398592c-79.543296 0-56.233984 0-157.548544 0-101.312512 0-209.240064-52.514816-315.090944-52.514816-105.852928 0-232.961024 21.743616-315.094016 52.514816L52.514816 428.78976c0 0 0.4096-26.257408 52.514816-26.257408L105.029632 350.017536c-80.900096 0-105.029632 52.514816-105.029632 52.514816l0 472.639488c0 0 261.756928-78.773248 367.609856-78.773248 105.85088 0 210.751488 52.51584 315.090944 52.51584 104.34048 0 210.062336 0 210.062336 0L892.763136 743.882752l-52.512768 0L840.250368 796.398592zM603.926528 481.304576l0-26.257408 105.032704 0c0 0 25.43616-26.257408 0-52.514816L603.926528 402.532352l78.773248-105.030656-52.514816 0-52.51584 78.772224-52.514816-78.772224-52.514816 0 78.772224 105.030656L446.380032 402.532352c-27.077632 27.89888 0 52.514816 0 52.514816l105.030656 0 0 26.257408L446.380032 481.304576c-25.43616 27.078656 0 52.516864 0 52.516864l105.030656 0 0 52.516864c24.61696 24.61696 52.514816 0 52.514816 0l0-52.516864 105.032704 0c0 0 26.258432-26.259456 0-52.516864L603.926528 481.304576z" p-id="13707" fill="#f26522"></path></svg>