<?xml version="1.0" standalone="no"?><!DOCTYPE svg PUBLIC "-//W3C//DTD SVG 1.1//EN" "http://www.w3.org/Graphics/SVG/1.1/DTD/svg11.dtd"><svg t="1636454437834" class="icon" viewBox="0 0 1024 1024" version="1.1" xmlns="http://www.w3.org/2000/svg" p-id="14590" xmlns:xlink="http://www.w3.org/1999/xlink" width="200" height="200"><defs><style type="text/css"></style></defs><path d="M376.048655 297.443389l-0.317225-0.064468-12.255115 25.312502c-0.763386 1.730411-2.130524 2.162246-3.813862 2.403746-87.7526 12.621459-174.681438 25.995047-262.154675 38.101783-17.767666 2.459005-31.783891 16.866133-31.783891 35.186384 0 9.91686 4.084015 18.879999 10.660804 25.300223 57.409524 56.042387 114.172319 113.246227 171.046655 168.882361v0.001024l20.041451 19.608593 0.02149 0.098237c0.470721 0.430812 0.840134 0.973164 1.065262 1.584078 0.321318 1.02126 0.11461 1.973958-0.049119 2.880607-16.431228 90.547249-27.805276 159.194722-44.845371 267.633457l-0.004093 0.032746 0.002046 0.012279a35.815717 35.815717 0 0 0-0.061398 2.049683c0 19.528775 15.836687 35.365462 35.365462 35.365462a35.18536 35.18536 0 0 0 17.438161-4.595668l0.318248-0.106424c77.256548-37.438681 148.443867-73.463152 233.923704-123.356492 0.979304-0.571005 1.947352-1.196245 2.968611-1.196245a4.01136 4.01136 0 0 1 2.148944 0.620123c93.220125 48.235584 220.35057 114.125247 236.896408 122.559337l0.125866 0.014326a35.199687 35.199687 0 0 0 16.769942 4.224208c19.528775 0 35.365462-15.836687 35.365463-35.365462 0-4.487198-1.076518-7.885598-2.139734-12.142551-34.837436-139.353838-66.039066-279.641955-100.81408-419.040819-2.874467-8.922207-11.245112-15.379269-21.123086-15.379269-12.251022 0-22.187325 9.936303-22.187325 22.188349 0 1.121544 0 2.240017 0.243547 3.301186 33.831526 147.472749 63.054081 262.649955 94.796016 389.460106l3.812839 15.236006-14.191211-7.329943C569.468876 771.115456 676.460656 826.1417 532.113083 751.868089c-1.692548-0.961908-3.435239-1.722224-5.222955-2.480494-16.282848-6.281053-30.284747 1.87265-35.30918 4.570086-72.628134 38.984896-145.504932 79.234599-219.596394 114.863051 14.07967-90.941222 27.042913-164.18641 41.253567-253.364475 2.236947-14.291494-4.115738-24.137747-13.766539-33.790594-59.414181-59.421344-120.218012-117.596302-180.212408-176.457898 109.318778-14.96176 142.606929-19.932981 250.779604-38.06699 5.708002-0.955768 10.292414-1.567705 14.18507-3.121084 7.404644-3.524267 13.120832-9.397021 16.541745-16.396436C438.848956 270.816962 474.880591 193.33324 514.725064 117.368104c39.946804 80.107479 65.98176 128.23664 116.54332 235.735979 3.462868 7.363711 11.333116 11.113105 18.569938 13.285585l0.045025 0.022513 0.086981 0.016372c86.48677 12.552897 163.329902 24.068162 238.96144 35.255969l21.258163 3.523243-13.676487 13.440104 0.001023 0.002046c-35.878139 35.204803-34.157961 33.584909-134.444015 131.354654-13.46671 13.127995-5.421476 37.81935 14.665001 38.416961 6.219655 0.185218 12.153808-2.200108 16.182565-6.328125 54.848189-55.504128 104.919585-107.136066 156.881026-159.903874 0 0 4.792143-6.332219 5.879918-8.319479 11.662621-24.1357-5.067412-47.746444-25.055653-50.79692-87.576591-14.005992-175.600367-24.836665-263.19947-38.5592-1.085728-0.132006-2.27788-0.599657-2.798743-1.657756-39.58353-80.530105-78.470189-161.493068-118.615514-241.781673l-0.176009-0.174985c-5.892197-11.336186-17.74106-19.080567-31.397081-19.080567-13.933337 0-26.244734 7.939833-31.750121 19.776415-34.338063 73.833589-71.507614 145.013745-106.638739 215.851093h0.001023v-0.00307zM245.550509 472.713228c49.2681 50.271964 62.060451 63.152319 88.959078 90.177836l1.465374 1.35895a21.564132 21.564132 0 0 0 14.285355 5.385661c11.95324 0 21.647019-9.692756 21.647019-21.647019a21.550829 21.550829 0 0 0-4.859681-13.663185l-0.647753-0.761339a24860.872073 24860.872073 0 0 0-88.206948-89.562829l-0.453324-0.226151a21.565155 21.565155 0 0 0-14.35494-5.448082c-11.952216 0-21.508873 9.694803-21.647019 21.64702-0.037862 3.216251 0.635473 8.635681 3.812839 12.739138z" p-id="14591" fill="#f26522"></path></svg>