<?xml version="1.0" standalone="no"?><!DOCTYPE svg PUBLIC "-//W3C//DTD SVG 1.1//EN" "http://www.w3.org/Graphics/SVG/1.1/DTD/svg11.dtd"><svg t="1636454452480" class="icon" viewBox="0 0 1024 1024" version="1.1" xmlns="http://www.w3.org/2000/svg" p-id="14781" xmlns:xlink="http://www.w3.org/1999/xlink" width="200" height="200"><defs><style type="text/css"></style></defs><path d="M555.008 829.952H468.992V366.08c0-18.944 15.36-34.304 34.304-34.304h17.408c18.944 0 34.304 15.36 34.304 34.304v463.872z" fill="#f26522" p-id="14782"></path><path d="M889.856 494.592H134.144c-37.888 0-68.608-30.72-68.608-68.608V323.072c0-56.832 46.08-102.912 102.912-102.912h687.104c56.832 0 102.912 46.08 102.912 102.912v102.912c0 37.888-30.72 68.608-68.608 68.608z m0-68.608v34.304-34.304zM168.448 288.768c-18.944 0-34.304 15.36-34.304 34.304v102.912h755.712V323.072c0-18.944-15.36-34.304-34.304-34.304H168.448z" p-id="14783" fill="#f26522"></path><path d="M821.248 958.464H202.752c-37.888 0-68.608-30.72-68.608-68.608V494.592c0-37.888 30.72-68.608 68.608-68.608h618.496c37.888 0 68.608 30.72 68.608 68.608v395.264c0 37.888-30.72 68.608-68.608 68.608z m0-68.608v34.304-34.304zM202.752 494.592v395.264h618.496V494.592H202.752z m281.6-240.128c-9.728 0-19.968-4.096-26.624-12.8L358.912 121.344c-11.776-14.848-9.728-36.352 4.608-48.128 14.848-12.288 36.352-9.728 48.128 4.608l98.816 120.32c11.776 14.848 9.728 36.352-4.608 48.128-6.144 5.12-13.824 8.192-21.504 8.192z" p-id="14784" fill="#f26522"></path><path d="M539.648 254.464c-7.68 0-15.36-2.56-22.016-7.68-14.848-12.288-16.896-33.792-4.608-48.128l98.816-120.32c12.288-14.848 33.792-16.896 48.128-4.608 14.848 12.288 16.896 33.792 4.608 48.128l-98.816 120.32c-6.144 7.68-15.872 12.288-26.112 12.288z" p-id="14785" fill="#f26522"></path></svg>