<?xml version="1.0" standalone="no"?><!DOCTYPE svg PUBLIC "-//W3C//DTD SVG 1.1//EN" "http://www.w3.org/Graphics/SVG/1.1/DTD/svg11.dtd"><svg t="1636454524538" class="icon" viewBox="0 0 1024 1024" version="1.1" xmlns="http://www.w3.org/2000/svg" p-id="16576" xmlns:xlink="http://www.w3.org/1999/xlink" width="200" height="200"><defs><style type="text/css"></style></defs><path d="M512 981.333333C251.733333 981.333333 42.666667 772.266667 42.666667 512S251.733333 42.666667 512 42.666667v64c-221.866667 0-401.066667 183.466667-401.066667 409.6s183.466667 401.066667 409.6 401.066666c221.866667 0 401.066667-183.466667 401.066667-405.333333 0-162.133333-93.866667-307.2-243.2-371.2l21.333333-55.466667c170.666667 72.533333 281.6 243.2 281.6 426.666667 0 260.266667-209.066667 469.333333-469.333333 469.333333z" fill="#f26522" p-id="16577"></path><path d="M614.4 251.733333c25.6 0 42.666667 17.066667 42.666667 42.666667s-17.066667 42.666667-42.666667 42.666667-42.666667-17.066667-42.666667-42.666667 21.333333-42.666667 42.666667-42.666667zM503.466667 243.2c25.6 0 42.666667 17.066667 42.666666 42.666667s-17.066667 42.666667-42.666666 42.666666-42.666667-17.066667-42.666667-42.666666 17.066667-42.666667 42.666667-42.666667zM290.133333 311.466667c0-34.133333 29.866667-64 64-64s64 29.866667 64 64-29.866667 64-64 64c-17.066667 0-34.133333-8.533333-46.933333-17.066667-8.533333-12.8-17.066667-29.866667-17.066667-46.933333zM691.2 665.6c-4.266667 25.6-17.066667 51.2-34.133333 72.533333s-42.666667 38.4-68.266667 42.666667h-17.066667c-25.6 0-51.2-8.533333-72.533333-29.866667-12.8-17.066667-17.066667-38.4-12.8-59.733333 0-8.533333 4.266667-12.8 4.266667-21.333333 12.8-25.6 8.533333-55.466667-4.266667-81.066667-8.533333-8.533333-17.066667-12.8-25.6-17.066667-51.2-17.066667-76.8-68.266667-64-119.466666 4.266667-12.8 12.8-29.866667 25.6-38.4 25.6-29.866667 59.733333-46.933333 98.133333-51.2h8.533334c29.866667 0 59.733333 8.533333 85.333333 21.333333 21.333333 8.533333 38.4 25.6 51.2 46.933333 17.066667 25.6 29.866667 51.2 34.133333 81.066667 4.266667 51.2 4.266667 102.4-8.533333 153.6zM704 384c-25.6 0-42.666667-17.066667-42.666667-42.666667s17.066667-42.666667 42.666667-42.666666 42.666667 17.066667 42.666667 42.666666-17.066667 42.666667-42.666667 42.666667z" fill="#f26522" p-id="16578"></path></svg>