<?xml version="1.0" standalone="no"?><!DOCTYPE svg PUBLIC "-//W3C//DTD SVG 1.1//EN" "http://www.w3.org/Graphics/SVG/1.1/DTD/svg11.dtd"><svg t="1636471064043" class="icon" viewBox="0 0 1024 1024" version="1.1" xmlns="http://www.w3.org/2000/svg" p-id="33780" xmlns:xlink="http://www.w3.org/1999/xlink" width="200" height="200"><defs><style type="text/css"></style></defs><path d="M514.452865 97.167017c133.431965 0 241.987357 108.555391 241.987357 241.987356 0 139.675156-181.425026 290.701848-242.220671 337.380984-82.760912-62.454424-242.839771-209.734792-241.753019-337.380984-0.001023-133.431965 108.553345-241.987357 241.986333-241.987356m0-34.56933c-152.73766 0-276.556687 123.819027-276.556687 276.556686-1.595334 187.252755 276.556687 380.2657 276.556687 380.2657S791.009552 526.407128 791.009552 339.154373c0-152.73766-123.819027-276.556687-276.556687-276.556686z" fill="#aaaaaa" p-id="33781"></path><path d="M514.449795 238.904135c57.18542 0 103.709013 46.52257 103.709013 103.709013s-46.523593 103.709013-103.709013 103.709014c-57.18542 0-103.709013-46.52257-103.709013-103.709014S457.264375 238.904135 514.449795 238.904135m0-34.56933c-76.369342 0-138.278343 61.907978-138.278343 138.278343 0 76.368318 61.909002 138.278343 138.278343 138.278344s138.278343-61.910025 138.278343-138.278344c0-76.370365-61.910025-138.278343-138.278343-138.278343zM287.432385 719.414957H149.154042c-9.553587 0-17.284665-7.731078-17.284665-17.284665 0-9.553587 7.731078-17.284665 17.284665-17.284665h138.278343c9.553587 0 17.284665 7.731078 17.284665 17.284665 0 9.553587-7.731078 17.284665-17.284665 17.284665zM822.99094 857.6933H561.001017c-9.553587 0-17.284665-7.731078-17.284665-17.284665s7.731078-17.284665 17.284665-17.284665h261.989923c19.057031 0 34.56933-15.512299 34.56933-34.56933s-15.512299-34.56933-34.56933-34.56933H661.250232c-9.553587 0-17.284665-7.731078-17.284665-17.284665s7.731078-17.284665 17.284665-17.284665h161.740708c38.131459 0 69.139683 31.008224 69.139683 69.139683s-31.008224 69.137637-69.139683 69.137637z" fill="#aaaaaa" p-id="33782"></path><path d="M560.022737 961.402313H433.171654c-38.131459 0-69.139683-31.008224-69.139684-69.139683s31.008224-69.139683 69.139684-69.139683h262.006295c9.553587 0 17.284665 7.731078 17.284665 17.284665s-7.731078 17.284665-17.284665 17.284665H433.171654c-19.057031 0-34.56933 15.512299-34.56933 34.56933 0 19.057031 15.512299 34.56933 34.56933 34.56933h126.851083c9.553587 0 17.284665 7.731078 17.284665 17.284665 0 9.555633-7.731078 17.286712-17.284665 17.286711z" fill="#aaaaaa" p-id="33783"></path></svg>