<?xml version="1.0" standalone="no"?><!DOCTYPE svg PUBLIC "-//W3C//DTD SVG 1.1//EN" "http://www.w3.org/Graphics/SVG/1.1/DTD/svg11.dtd"><svg t="1636471101662" class="icon" viewBox="0 0 1024 1024" version="1.1" xmlns="http://www.w3.org/2000/svg" p-id="34659" xmlns:xlink="http://www.w3.org/1999/xlink" width="200" height="200"><defs><style type="text/css"></style></defs><path d="M514.8 840.7c-13.8 0-24.4-10.6-24.4-24.5v-68.6H384.7c-13.9 0-24.4-10.6-24.4-24.5s10.5-24.5 24.4-24.5h105.7v-61.9H384.7c-13.9 0-24.4-10.6-24.4-24.5s10.5-24.5 24.4-24.5h113.1L384.7 474.4c-4.8-4.8-7.4-10.6-7.4-17.1 0-6.5 2.4-13 7.4-17.1 4.8-4.8 10.5-7.4 17-7.4s13 2.4 17 7.4l95.9 95.5 95.2-96.2c4.8-4.8 10.5-7.4 17-7.4s13 2.4 17 7.4c9.8 9.8 9.8 25.2 0 34.3L531.7 587.9h113.1c13.8 0 24.4 10.6 24.4 24.5s-10.5 24.5-24.4 24.5H539v61.9h105.7c13.8 0 24.4 10.6 24.4 24.5s-10.5 24.5-24.4 24.5H539v68.6c0.2 12.8-10.5 24.3-24.2 24.3z m0 0" fill="#aaaaaa" p-id="34660"></path><path d="M279 1021.6c-33.3 0-117.1-7.4-179.7-72.6-52.1-54.7-76.5-134.6-73.2-239 8.1-214.5 196.8-358.9 277.2-410.2l13-8.2-9.8-11.5c-20.3-22.8-54.5-67.7-62.6-119.9-4.8-31.9 2.4-60.4 20.3-82.3 22-28.4 48-34.2 65.9-34.2 19.6 0 40.7 7.4 61.7 20.4l8.9 6.5 7.4-9.8c18.8-25.2 52.9-56.3 105-57.1h1.7c52.9 0 87 31 106.5 57.1l7.4 9.8 9.8-6.5c21.1-13.9 42.3-20.4 61.7-20.4 17.9 0 44 5.7 65.8 34.3 17.9 22.8 24.4 51.4 19.6 82.3-5.7 38.4-28.5 82.3-62.6 119.9l-9.8 11.5 13 8.2c80.5 52.3 269.1 195.8 277.2 410.2 4.1 104.4-21.1 185.2-73.2 239-62.6 65.3-147.1 72.6-179.6 72.6H279v-0.1z m86.9-702.2C336.7 335.7 83.7 481.8 74.8 711.7c-3.3 91.4 17 159.8 59.3 203.9 49.5 51.4 117.9 57.1 144.7 57.1h471.6c26.8 0 95.2-5.7 144.7-57.1 42.3-44.1 62.6-112.5 59.3-203.1-8.1-230.8-261.9-376.9-290.3-392.3l-4.8-3.3-5.7 1.7c-2.4 0.8-4.8 1.7-7.4 1.7H384.7c-2.4 0-4.8-0.8-8.1-1.7l-5.7-1.7-5 2.5zM329.3 91.8c-6.5 0-16.3 1.7-27.7 15.5-9.8 12.2-13 26.9-9.8 45.6 6.5 47.3 48.8 97.1 73.9 117.5l4.8 4.1 6.5-1.7c3.3-0.8 4.8-1.7 6.5-1.7h261.8c0.8 0 2.4 0.8 4.1 0.8l8.1 2.4 4.8-4.1c25.2-20.4 67.5-70.1 73.9-117.5 2.4-18.7-0.8-33.4-9.8-45.6-10.5-13.9-20.3-15.5-27.7-15.5-23.6 0-52.1 24.5-61 34.3-4.8 4.8-11.4 8.2-17.9 8.2-1.7 0-3.3 0-4.8-0.8-8.1-1.7-15.5-7.4-17.9-15.5-2.4-7.4-27.7-65.3-83-65.3h-1.7c-57.7 0.8-81.3 62.8-82.1 65.3-3.3 8.2-9.8 13.9-17.9 15.5-1.7 0-3.3 0.8-4.8 0.8-6.5 0-13-2.4-17.9-8.2-8.3-9.6-36.8-34.1-60.4-34.1z m0 0" fill="#aaaaaa" p-id="34661"></path></svg>