<?xml version="1.0" standalone="no"?><!DOCTYPE svg PUBLIC "-//W3C//DTD SVG 1.1//EN" "http://www.w3.org/Graphics/SVG/1.1/DTD/svg11.dtd"><svg t="1636471138877" class="icon" viewBox="0 0 1024 1024" version="1.1" xmlns="http://www.w3.org/2000/svg" p-id="35523" xmlns:xlink="http://www.w3.org/1999/xlink" width="200" height="200"><defs><style type="text/css"></style></defs><path d="M486.607028 847.649196L74.175487 1020.997003a33.789962 33.789962 0 0 1-47.713946-30.512966V40.295095A41.160954 41.160954 0 0 1 68.186494 0.00514h838.070067c23.037974 0.05 41.672954 18.07198 41.723954 40.289955v950.188942c0 11.109988-5.784994 21.450976-15.357983 27.59497a35.426961 35.426961 0 0 1-32.304964 2.917996l-413.65954-173.347807z m401.167554 104.796884V84.067046a26.006971 26.006971 0 0 0-26.159971-25.289971H111.650446a26.006971 26.006971 0 0 0-26.212971 25.289971v868.379034l401.117553-169.866811 401.167554 169.866811z m-402.139553-295.909671l-166.641814 78.328913a21.449976 21.449976 0 0 1-30.717966-21.911976l23.191974-183.125796-125.58286-134.081851a21.399976 21.399976 0 0 1 11.569987-35.73396l179.9018-35.171961 89.181901-159.985822a21.348976 21.348976 0 0 1 37.577958 0l89.079901 161.163821 179.900799 33.993962a21.399976 21.399976 0 0 1 11.621987 35.68296L659.186836 531.055549l23.139974 181.949797a21.501976 21.501976 0 0 1-30.664965 21.859976l-166.027816-78.329913z m130.701855-2.303997L600.158902 526.960553a35.83696 35.83696 0 0 1 9.21499-28.209968l87.953902-94.454895-124.916861-24.163973a35.83696 35.83696 0 0 1-24.317973-17.303981L485.634029 249.940862l-61.331931 112.886874a36.706959 36.706959 0 0 1-24.317973 17.91798l-125.479861 24.112973 87.953902 94.455895a35.83696 35.83696 0 0 1 9.21499 28.208969l-16.229982 127.271858 115.753871-54.16494a34.454962 34.454962 0 0 1 30.102967 0l115.036872 53.601941z" p-id="35524" fill="#aaaaaa"></path></svg>