<?xml version="1.0" standalone="no"?><!DOCTYPE svg PUBLIC "-//W3C//DTD SVG 1.1//EN" "http://www.w3.org/Graphics/SVG/1.1/DTD/svg11.dtd"><svg t="1636468156836" class="icon" viewBox="0 0 1343 1024" version="1.1" xmlns="http://www.w3.org/2000/svg" p-id="32001" xmlns:xlink="http://www.w3.org/1999/xlink" width="262.3046875" height="200"><defs><style type="text/css"></style></defs><path d="M1043.692308 1024h-201.019077v-78.769231h201.019077c121.856 0 221.026462-106.023385 221.026461-236.307692 0-116.184615-81.526154-216.300308-189.676307-232.841846l-33.476924-5.041231v-33.870769c0-199.443692-149.188923-358.4-332.563692-358.4h-74.436923C454.419692 78.769231 305.230769 234.889846 302.08 426.850462l-0.078769 10.318769 0.078769 33.870769-33.555692 5.041231C160.374154 492.622769 78.769231 592.738462 78.769231 708.923077c0 130.284308 99.170462 236.307692 221.105231 236.307692h185.895384v78.769231h-185.895384C134.537846 1024 0 882.688 0 708.923077c0-142.966154 94.208-267.972923 224.098462-303.734154C237.646769 180.302769 417.949538 0 634.564923 0h74.436923c217.875692 0 396.681846 179.278769 410.466462 405.267692 129.732923 35.761231 224.019692 160.689231 224.019692 303.655385 0 173.764923-134.459077 315.076923-299.795692 315.076923z" p-id="32002" fill="#aaaaaa"></path><path d="M632.280615 472.615385h78.769231v551.384615h-78.769231z" p-id="32003" fill="#aaaaaa"></path><path d="M921.757538 738.855385L671.665231 524.839385 421.730462 738.855385l-51.27877-59.864616 301.213539-257.811692 301.371077 257.811692z" p-id="32004" fill="#aaaaaa"></path></svg>