<?xml version="1.0" standalone="no"?><!DOCTYPE svg PUBLIC "-//W3C//DTD SVG 1.1//EN" "http://www.w3.org/Graphics/SVG/1.1/DTD/svg11.dtd"><svg t="1636988445656" class="icon" viewBox="0 0 1024 1024" version="1.1" xmlns="http://www.w3.org/2000/svg" p-id="9061" xmlns:xlink="http://www.w3.org/1999/xlink" width="200" height="200"><defs><style type="text/css"></style></defs><path d="M96.400049 643.435495 96.400049 262.162862c0-21.186532 17.175171-38.361703 38.362726-38.361703l381.074112 0c21.186532 0 38.362726 17.175171 38.362726 38.361703l0 381.272633c0 7.061836-5.726421 12.788258-12.789281 12.788258L109.188306 656.223752C102.125447 656.222729 96.400049 650.497331 96.400049 643.435495zM404.129712 774.048251c0 43.942815-35.623335 79.565127-79.564104 79.565127-43.941791 0-79.565127-35.622312-79.565127-79.565127s35.623335-79.565127 79.565127-79.565127C368.506377 694.483124 404.129712 730.104413 404.129712 774.048251zM364.346637 774.048251c0-21.971407-17.811668-39.782052-39.783075-39.782052-21.970384 0-39.783075 17.810644-39.783075 39.782052s17.811668 39.784098 39.783075 39.784098C346.535993 813.83235 364.346637 796.019659 364.346637 774.048251zM256.035816 694.482101 77.745177 694.482101c-7.061836 0-12.787234 5.725398-12.787234 12.787234l0 38.795585c0 7.062859 5.725398 12.788258 12.787234 12.788258l142.909827 0C224.384955 733.252103 237.306242 710.638059 256.035816 694.482101zM820.427046 774.048251c0 43.942815-35.624359 79.565127-79.565127 79.565127-43.941791 0-79.565127-35.622312-79.565127-79.565127s35.622312-79.565127 79.565127-79.565127C784.803711 694.482101 820.427046 730.104413 820.427046 774.048251zM780.643971 774.048251c0-21.971407-17.811668-39.782052-39.784098-39.782052s-39.782052 17.810644-39.782052 39.782052 17.810644 39.784098 39.782052 39.784098C762.832304 813.83235 780.643971 796.019659 780.643971 774.048251zM961.086623 707.269335l0 38.796608c0 7.061836-5.725398 12.787234-12.788258 12.787234L844.768431 758.853178c-7.402597-50.783617-51.111075-89.944522-103.904465-89.944522-52.804646 0-96.513124 39.161928-103.917768 89.944522L428.476213 758.853178c-3.731998-25.601074-16.653285-48.214095-35.381835-64.370053l197.666942 0L590.76132 328.72279c0-14.124695 11.449773-25.574469 25.574469-25.574469l120.721479 0c33.992185 0 65.762773 16.884552 84.783988 45.055149l77.825506 115.26828c11.414981 16.907065 17.513886 36.842093 17.513886 57.242725l0 173.767626 31.120788 0C955.362248 694.482101 961.086623 700.207499 961.086623 707.269335zM831.36619 466.423989l-62.23339-88.431052c-2.394537-3.403516-6.29538-5.428639-10.457166-5.428639l-97.073896 0c-7.060813 0-12.787234 5.725398-12.787234 12.787234l0 88.431052c0 7.062859 5.724375 12.788258 12.787234 12.788258l159.308309 0C831.267952 486.570841 837.327972 474.895941 831.36619 466.423989z" p-id="9062" fill="#ffffff"></path></svg>