<?xml version="1.0" standalone="no"?><!DOCTYPE svg PUBLIC "-//W3C//DTD SVG 1.1//EN" "http://www.w3.org/Graphics/SVG/1.1/DTD/svg11.dtd"><svg t="1637062502086" class="icon" viewBox="0 0 3080 1024" version="1.1" xmlns="http://www.w3.org/2000/svg" p-id="6453" xmlns:xlink="http://www.w3.org/1999/xlink" width="601.5625" height="200"><defs><style type="text/css"></style></defs><path d="M650.629186 258.521789s90.338469 17.298856 99.948944 30.753521a58.185662 58.185662 0 0 0 30.753522-30.753521s-49.974472-67.273328-130.702466 0z" fill="#2c3167" p-id="6454"></path><path d="M658.317566 266.210169s51.896567-13.454666 84.572184 23.065141c0 0 48.052377 3.84419 46.130282-30.753521 0 0-90.338469-94.182659-138.390846 0z" fill="#2c3167" p-id="6455"></path><path d="M1094.702346 957.833799s-52.680782 9.948764-82.842299-28.677659c0 0-47.667958-7.057933-48.08313 27.593597 0 0 83.803346 100.025828 138.075622 9.272187z" fill="#2c3167" p-id="6456"></path><path d="M2432.480524 773.312671s-52.680782 9.948764-82.842298-28.677659c0 0-47.667958-7.057933-48.083131 27.593597 0 0 78.521428 84.479923 132.778328-6.273718z" fill="#2c3167" p-id="6457"></path><path d="M765.954891 104.754182s98.026849 9.610475 130.702466 46.130282c0 0 48.052377 3.84419 46.130282-30.753521 0 0-136.468751-117.2478-184.521129-23.065141z" fill="#2c3167" p-id="6458"></path><path d="M2056.226567 45.815058s53.549569-2.598673 78.090879 39.818122c0 0 46.260984 13.554615 51.435264-20.712496 0 0-69.249242-110.612728-135.484638-28.20098zM2209.878848 77.014506s162.347839 60.499865 131.048443 134.116106c0 0 42.53212 48.982671 54.964231 16.637655 0 0-43.992912-213.660089-189.902995-160.9178z" fill="#2c3167" p-id="6459"></path><path d="M936.521609 957.787669s-153.99057-41.801724-155.189957-122.637355c0 0-27.20149-36.296844-38.02673-3.375199 0 0 35.258912 218.911253 197.591375 135.976694z" fill="#2c3167" p-id="6460"></path><path d="M2365.138 896.657357s-97.473286 67.065742-162.063369 18.452112c0 0-45.361444-0.768838-25.986725 27.970328 0 0 155.958795 92.260564 203.426855-38.726372z" fill="#2c3167" p-id="6461"></path><path d="M112.442562 173.949605l299.846833 53.818662-46.130282 76.883804 138.390846 61.507042-61.507042 53.818663-222.96303-99.948945 23.065141-61.507042z" fill="#2c3167" p-id="6462"></path><path d="M102.686008 780.562813l278.45007-123.575337 4.912875 89.523501 149.077695-26.686368-20.758627 79.051926-240.646304 42.286092-15.376761-63.859687z" fill="#2c3167" p-id="6463"></path><path d="M2930.233955 146.840376l-299.846833 53.818662 46.130282 76.937622-138.390846 61.553173 61.507043 53.818663 222.963029-100.01814-23.065141-61.553173z" fill="#2c3167" p-id="6464"></path><path d="M3026.338709 735.201369L2693.962339 628.909511l-11.793975 88.931496-146.625102-37.980599-16.145599 72.755143 267.509506 68.21131 20.26657-62.560351z" fill="#2c3167" p-id="6465"></path><path d="M1258.011232 50.93552l38.441902 0 0 38.441901-38.441902 0 0-38.441901Z" fill="#2c3167" p-id="6466"></path><path d="M1650.118629 97.065802l38.441902 0 0 38.441901-38.441902 0 0-38.441901Z" fill="#2c3167" p-id="6467"></path><path d="M2503.528846 535.303481l38.441902 0 0 38.441901-38.441902 0 0-38.441901Z" fill="#2c3167" p-id="6468"></path><path d="M1750.067574 919.722498l38.441901 0 0 38.441901-38.441901 0 0-38.441901Z" fill="#2c3167" p-id="6469"></path><path d="M1357.960177 835.150314l38.441901 0 0 38.441902-38.441901 0 0-38.441902Z" fill="#2c3167" p-id="6470"></path><path d="M612.187284 896.657357l38.441902 0 0 38.441901-38.441902 0 0-38.441901Z" fill="#2c3167" p-id="6471"></path><path d="M712.136228 666.005946l38.441902 0 0 38.441902-38.441902 0 0-38.441902Z" fill="#2c3167" p-id="6472"></path><path d="M612.187284 550.680241l38.441902 0 0 38.441902-38.441902 0 0-38.441902Z" fill="#2c3167" p-id="6473"></path><path d="M1203.33916 517.189657l-113.987927-49.405532 2.260384-1.61456-17.437247-25.187134-140.143797 95.259032 17.114335 25.510046 50.69718-34.551581 2.583296 18.405982 113.019191-12.916479-2.583296-20.666366 76.207226 33.259933z m-31.968286 33.905757l-24.864222-17.760159-45.207676 63.613659 16.145599 11.301919-33.905758 0.645824-23.895486-61.999099-28.739165 10.656095 19.989788 51.988828-24.54131 0.645824-24.864222-53.603387-27.447517 12.916479 19.051806 41.332732-44.592606 0.645824 0.322912 30.030814 247.996396-4.84368-0.968736-30.030813-65.55113 1.291647z m-115.925398-155.643571h-68.134427l6.781151-19.374719-28.447007-10.656095-33.259933 93.644472 28.739166 10.333184 15.176862-43.593117h13.239391l28.447008 41.978557 25.510046-17.114335-17.114335-24.864222h29.062078v-30.353725z m123.675286 50.697179l-14.531039-25.510046 39.395261-4.197855-2.583296-30.353726-85.894585 9.041536 6.781151-17.437247-28.739165-10.979007-25.187134 65.551131 28.739165 10.656095 6.150704-15.822687 28.447008-2.906208 20.666366 37.134877z m-119.477431 41.978557l37.134877 16.145599-73.62393 8.395711z m202.142896-75.884314l29.062078-1.61456-23.249662 53.280476 15.176862 21.635102 46.176413-2.583296 2.906207 33.905758-56.832507 3.552031 1.937472 30.676638 57.478331-3.552032 3.552032 41.332733-80.405082 16.145599 6.150705 30.030813 174.049554-34.874493-6.150705-30.353726-63.290747 12.916479-3.552031-37.134877 50.374268-3.552031-2.260384-30.676638-51.020092 3.552032-2.906208-33.582845 52.280986-2.906208 13.885215-20.343455-15.499774-45.8535-29.062078 10.333183 9.041535 26.140493-83.957113 4.84368 19.374718-44.884764 108.821336-6.150705-1.61456-30.676637-172.757906 10.333183z m240.892333 221.840526l16.46851-15.176862 6.150705-241.215245-30.676638-0.968736-5.812415 225.392558-42.286092-2.906208-1.937472 30.676638z m-32.291198-86.878697l1.937472-125.612758-30.676637-0.322912-1.937472 125.612758z m143.695829 85.571673l9.041535-121.737815 56.186683 8.395712-19.989788 91.384088 29.707901 6.45824 23.895486-107.206775-12.916479-18.728895-74.577289-10.656095 3.22912-39.718173h109.175001l34.551581 88.800793-60.061627 78.46761 24.218398 18.405982 48.759708-63.936571 30.999549 78.790522 28.447007-11.301919-37.457789-95.904856 34.874494-45.530589-24.218398-18.405982-23.572574 30.999549-23.572575-60.384539h58.431691l14.208127-21.31219-19.051807-41.978557-27.770429 11.947743 9.364447 20.989279h-47.145148l-17.437247-44.592606-28.447007 10.656095 13.239391 33.905757h-111.78905l-14.853951 14.208127-15.822687 205.372015z m417.848094 1.291648l52.280986-183.75229 52.957564-8.718624-12.593567 153.383188-48.759708-13.239391-8.072799 29.38499 66.519866 18.728894 19.374719-13.885215 15.822687-191.163888-17.760159-16.145599-58.124155 9.364447 10.333183-36.135387-29.707902-8.395712-14.208127 49.728444-53.280475 8.395712 4.843679 30.353725 39.072349-6.150704-48.382977 170.205364z m-34.551581-196.330481l4.520768-30.353725-92.029913-14.531039-4.84368 30.676637 31.968286 5.166592 1.291648 149.154579-32.937022 16.791422 14.208127 27.124606 89.769529-46.499324-13.885215-27.124606-26.801694 13.885215-0.991801-128.795748z" fill="#2c3167" p-id="6474"></path></svg>